<?xml version="1.0" encoding="utf-8"?>
<!-- Generator: Adobe Illustrator 24.1.0, SVG Export Plug-In . SVG Version: 6.00 Build 0)  -->
<svg version="1.1" id="Layer_1" xmlns="http://www.w3.org/2000/svg" xmlns:xlink="http://www.w3.org/1999/xlink" x="0px" y="0px"
	 viewBox="0 0 300 300" style="enable-background:new 0 0 300 300;" xml:space="preserve">
<style type="text/css">
	.st0{fill:#0F6ACE;}
	.st1{fill:#FFFFFF;}
</style>
<rect x="-0.2" y="-0.1" class="st0" width="300" height="299.7"/>
<g>
	<path class="st1" d="M36.8,148c-2.8,0-5.5-1-7.7-3c-4.7-4.3-5-11.5-0.7-16.1c2.1-2.3,4.9-3.6,7.9-3.7c3.1-0.1,6,0.9,8.2,3
		c1.4,1.3,2.5,3,3.1,4.8c0.5,1.5,0.7,3,0.6,4.5c0,0.5-0.5,1-1.1,0.9c-0.6,0-1-0.5-0.9-1.1c0.1-1.3-0.1-2.5-0.5-3.7
		c-0.5-1.5-1.4-2.9-2.6-4c-1.9-1.7-4.3-2.6-6.8-2.5c-2.5,0.1-4.8,1.2-6.5,3.1c-3.5,3.8-3.2,9.8,0.6,13.3c3.8,3.5,9.8,3.2,13.3-0.6
		c0.4-0.4,1-0.4,1.4-0.1c0.4,0.4,0.4,1,0.1,1.4C43,146.7,39.9,148,36.8,148z"/>
</g>
<g>
	<path class="st1" d="M54.4,190.2c-3.6,0-7.1-1.7-9.3-4.8c-3.6-5.1-2.4-12.3,2.7-15.9c3-2.1,6.8-2.7,10.3-1.5
		c0.5,0.2,0.8,0.7,0.6,1.3c-0.2,0.5-0.7,0.8-1.3,0.6c-2.9-1-6-0.5-8.5,1.2c-4.2,3-5.2,8.9-2.2,13.1c3,4.2,8.9,5.2,13.1,2.2
		c2.1-1.5,3.4-3.6,3.8-6.1c0.4-2.5-0.1-5-1.6-7c-0.3-0.5-0.2-1.1,0.2-1.4c0.5-0.3,1.1-0.2,1.4,0.2c1.8,2.5,2.5,5.5,1.9,8.5
		c-0.5,3-2.2,5.6-4.7,7.4C59,189.5,56.7,190.2,54.4,190.2z"/>
</g>
<g>
	<path class="st1" d="M69,122.8c-0.1,0-0.3,0-0.4-0.1c-3.5-1.6-5.1-5.7-3.5-9.2c1.6-3.5,5.7-5.1,9.2-3.5c1.7,0.8,3,2.1,3.7,3.9
		c0.7,1.7,0.6,3.6-0.1,5.4c-0.6,1.4-1.7,2.6-3.1,3.3c-0.5,0.3-1.1,0.1-1.4-0.4c-0.3-0.5-0.1-1.1,0.4-1.4c1-0.5,1.7-1.4,2.2-2.4
		c0.5-1.2,0.6-2.6,0.1-3.8c-0.5-1.2-1.4-2.2-2.6-2.8c-2.5-1.1-5.5,0-6.6,2.5c-1.1,2.5,0,5.5,2.5,6.6c0.5,0.2,0.7,0.8,0.5,1.3
		C69.8,122.6,69.4,122.8,69,122.8z"/>
</g>
<g>
	<path class="st1" d="M88.4,152.6c-1.1,0-2.2-0.2-3.3-0.6c-1.9-0.7-3.4-2.1-4.5-3.8c-0.3-0.5-0.1-1.1,0.3-1.4
		c0.5-0.3,1.1-0.1,1.4,0.3c0.8,1.3,2,2.4,3.5,3c3.6,1.4,7.8-0.4,9.2-4c1.4-3.6-0.4-7.8-4-9.2c-3.6-1.4-7.8,0.4-9.2,4
		c-0.2,0.5-0.8,0.8-1.3,0.6c-0.5-0.2-0.8-0.8-0.6-1.3c1.8-4.7,7.1-7,11.8-5.1c4.7,1.8,7,7.1,5.1,11.8
		C95.5,150.4,92.1,152.6,88.4,152.6z"/>
</g>
<g>
	<path class="st1" d="M88.4,171.2c-1.2,0-2.4-0.4-3.4-1.2c-1.2-0.9-1.9-2.2-2-3.7c-0.1-1.2,0.1-2.4,0.8-3.5c0.3-0.5,0.9-0.6,1.4-0.3
		c0.5,0.3,0.6,0.9,0.3,1.4c-0.4,0.7-0.6,1.4-0.5,2.2c0.1,0.9,0.6,1.8,1.3,2.3c0.7,0.6,1.6,0.8,2.6,0.7c0.9-0.1,1.8-0.6,2.3-1.3
		c0.6-0.7,0.8-1.6,0.7-2.6c-0.1-0.9-0.6-1.8-1.3-2.3c-0.7-0.6-1.6-0.8-2.6-0.7c-0.5,0.1-1-0.3-1.1-0.9c-0.1-0.5,0.3-1,0.9-1.1
		c1.5-0.2,2.9,0.2,4,1.2c1.2,0.9,1.9,2.2,2,3.7c0.3,3-1.8,5.7-4.8,6.1C88.8,171.2,88.6,171.2,88.4,171.2z"/>
</g>
<g>
	<path class="st1" d="M67.6,164.8c-3.9,0-7.7-1.3-10.8-3.6c-3.8-2.9-6.3-7.1-7-11.9c-0.7-4.8,0.6-9.5,3.5-13.3
		c2.9-3.8,7.1-6.3,11.9-7c4.8-0.7,9.5,0.6,13.3,3.5l-1.2,1.6c-3.4-2.6-7.6-3.7-11.9-3.1c-4.2,0.6-8,2.8-10.6,6.2
		c-2.6,3.4-3.7,7.6-3.1,11.8c0.6,4.2,2.8,8,6.2,10.6c3.4,2.6,7.6,3.7,11.8,3.1c4.2-0.6,8-2.8,10.6-6.2c0.3-0.4,1-0.5,1.4-0.2
		c0.4,0.3,0.5,1,0.2,1.4c-2.9,3.8-7.1,6.3-11.9,7C69.3,164.8,68.4,164.8,67.6,164.8z"/>
</g>
<path class="st1" d="M185.9,139.5c-0.1-0.1-0.1-0.1-0.2-0.1h-7c-0.1,0-0.2,0.1-0.2,0.2c-0.1,0.5-3.1,11.4-4,15.1
	c-0.9-3.7-3.8-14.6-4-15.1c0-0.1-0.1-0.2-0.2-0.2h-7c-0.1,0-0.2,0-0.2,0.1c0,0.1,0,0.2,0,0.2l7.5,23c0,0.1,0.1,0.2,0.2,0.2h7.3
	c0.1,0,0.2-0.1,0.2-0.2l7.5-23C185.9,139.6,185.9,139.6,185.9,139.5z"/>
<path class="st1" d="M190.7,139.4h6.2c0.1,0,0.2,0.1,0.2,0.2v23c0,0.1-0.1,0.2-0.2,0.2h-6.2c-0.1,0-0.2-0.1-0.2-0.2v-23
	C190.5,139.5,190.6,139.4,190.7,139.4z"/>
<path class="st1" d="M222.4,142.3c-2-1.9-5-2.9-8.7-2.9h-8c-0.1,0-0.2,0.1-0.2,0.2v23c0,0.1,0.1,0.2,0.2,0.2h7.4
	c3.9,0,6.9-1.1,9.1-3.2c2.2-2.1,3.2-5.2,3.2-9.1C225.5,147,224.5,144.2,222.4,142.3z M218.9,150.9c0,1.8-0.5,3.5-1.6,4.9
	c-1,1.1-2.5,1.7-4,1.6h-1.4v-12.4h1.8c1.4-0.1,2.7,0.4,3.6,1.4C218.4,147.6,218.9,149.2,218.9,150.9z"/>
<path class="st1" d="M228.8,150h8.9c0.1,0,0.2,0.1,0.2,0.2v4.9c0,0.1-0.1,0.2-0.2,0.2h-8.9c-0.1,0-0.2-0.1-0.2-0.2v-4.9
	C228.6,150.2,228.7,150,228.8,150z"/>
<path class="st1" d="M254.5,139.4h-5.6c-0.1,0-0.1,0-0.2,0.1l-7.9,6.4c-0.1,0.1-0.1,0.3,0,0.4l3.2,4c0.1,0.1,0.3,0.1,0.4,0
	c0.3-0.2,2.6-2,3.6-2.9c-0.1,3-0.1,14.8-0.1,15.3c0,0.1,0,0.1,0.1,0.2c0,0,0.1,0.1,0.2,0.1h6.3c0.1,0,0.2-0.1,0.2-0.2v-23
	C254.8,139.5,254.7,139.4,254.5,139.4C254.6,139.4,254.5,139.4,254.5,139.4z"/>
<path class="st1" d="M159.1,142.4c-1.9-2-4.8-3.1-8.5-3.1s-6.6,1-8.5,3.1s-2.9,5.1-2.9,9c0,3.9,1,7,3,9s4.8,3.1,8.5,3.1
	s6.6-1.1,8.5-3.1s2.9-5.1,2.9-9S161.1,144.5,159.1,142.4z M156,151.4c0.1,1.5-0.4,3.1-1.4,4.3c-2.3,1.9-5.7,1.9-8,0
	c-1-1.2-1.5-2.7-1.4-4.3c-0.1-1.5,0.4-3.1,1.4-4.2c2.3-1.9,5.7-1.9,8,0C155.6,148.3,156.1,149.9,156,151.4L156,151.4z"/>
<path class="st1" d="M274.3,142c-1.7-2-4.2-3-6.7-2.9c-4.3-0.4-8,2.8-8.4,7.1c0,0.4,0,0.9,0,1.3c-0.1,2,0.5,4.1,1.8,5.7
	c1.2,1.4,3,2.2,4.9,2.1c1.4,0,2.8-0.1,4.1-0.4c-0.3,0.6-0.7,1.2-1.2,1.6c-1.5,1-3.2,1.4-5,1.3c-0.9,0-1.8-0.1-2.7-0.2
	c-0.1,0-0.1,0-0.2,0.1c-0.1,0-0.1,0.1-0.1,0.2v4.9c0,0.1,0.1,0.2,0.2,0.2c1.1,0.1,2.2,0.2,3.2,0.2c4.3,0,7.5-1,9.5-3.1
	c2-2.1,3-5.4,3-10C276.7,146.7,275.9,143.9,274.3,142z M267.8,150.6c-1.6,0-2.9-1.6-2.9-3.6c0-2,1.3-3.5,2.9-3.5s2.9,1.6,2.9,3.5
	C270.7,149,269.4,150.6,267.8,150.6z"/>
<path class="st1" d="M136.3,154.3c0-0.1-0.1-0.1-0.2-0.1h-5.9c-0.1,0-0.2,0.1-0.2,0.2c-0.2,0.5-0.5,0.9-0.8,1.3
	c-2.3,1.9-5.7,1.9-8,0c-1-1.2-1.5-2.7-1.4-4.3c-0.1-1.5,0.4-3.1,1.4-4.2c2.3-1.9,5.7-1.9,8,0c0.3,0.3,0.5,0.6,0.6,0.9
	c0,0.1,0.1,0.1,0.2,0.1h6c0.1,0,0.1,0,0.2-0.1c0.1-0.1,0.1-0.1,0.1-0.2c-0.3-2-1.2-4-2.6-5.5c-1.9-2-4.8-3.1-8.5-3.1
	c-3.7,0-6.6,1-8.5,3.1s-3,5.1-3,9c0,3.9,1,7,3,9s4.8,3.1,8.5,3.1s6.6-1.1,8.5-3.1c1.5-1.6,2.4-3.7,2.7-5.9
	C136.4,154.5,136.4,154.4,136.3,154.3z"/>
</svg>
